<svg width="322" height="324" xmlns="http://www.w3.org/2000/svg" xmlns:xlink="http://www.w3.org/1999/xlink" overflow="hidden"><defs><clipPath id="clip0"><rect x="998" y="192" width="322" height="324"/></clipPath><linearGradient x1="108.587" y1="0" x2="108.587" y2="268.598" gradientUnits="userSpaceOnUse" spreadMethod="reflect" id="fill1"><stop offset="0" stop-color="#3CC7E8"/><stop offset="0.79" stop-color="#48A4DC"/><stop offset="1" stop-color="#48A4DC"/></linearGradient><linearGradient x1="104.776" y1="0" x2="104.776" y2="271.416" gradientUnits="userSpaceOnUse" spreadMethod="reflect" id="fill2"><stop offset="0" stop-color="#17A3C3"/><stop offset="0.0188679" stop-color="#17A2C2"/><stop offset="0.0377358" stop-color="#18A2C2"/><stop offset="0.0566038" stop-color="#18A2C2"/><stop offset="0.0754717" stop-color="#19A2C2"/><stop offset="0.0943396" stop-color="#1AA2C2"/><stop offset="0.113208" stop-color="#1AA2C2"/><stop offset="0.132075" stop-color="#1BA1C2"/><stop offset="0.150943" stop-color="#1CA1C2"/><stop offset="0.169811" stop-color="#1CA1C2"/><stop offset="0.188679" stop-color="#1DA0C2"/><stop offset="0.207547" stop-color="#1DA0C2"/><stop offset="0.226415" stop-color="#1E9FC1"/><stop offset="0.245283" stop-color="#1E9FC1"/><stop offset="0.264151" stop-color="#1F9EC1"/><stop offset="0.283019" stop-color="#1F9DC1"/><stop offset="0.301887" stop-color="#209DC0"/><stop offset="0.320755" stop-color="#209CC0"/><stop offset="0.339623" stop-color="#219BC0"/><stop offset="0.358491" stop-color="#219BC0"/><stop offset="0.377358" stop-color="#229ABF"/><stop offset="0.396226" stop-color="#2299BF"/><stop offset="0.415094" stop-color="#2398BF"/><stop offset="0.433962" stop-color="#2397BF"/><stop offset="0.45283" stop-color="#2396BE"/><stop offset="0.471698" stop-color="#2495BE"/><stop offset="0.490566" stop-color="#2494BE"/><stop offset="0.509434" stop-color="#2593BD"/><stop offset="0.528302" stop-color="#2592BD"/><stop offset="0.54717" stop-color="#2591BC"/><stop offset="0.566038" stop-color="#2690BC"/><stop offset="0.584906" stop-color="#268FBC"/><stop offset="0.603774" stop-color="#268EBB"/><stop offset="0.622642" stop-color="#268CBB"/><stop offset="0.641509" stop-color="#278BBA"/><stop offset="0.660377" stop-color="#278ABA"/><stop offset="0.679245" stop-color="#2788B9"/><stop offset="0.698113" stop-color="#2787B9"/><stop offset="0.716981" stop-color="#2886B8"/><stop offset="0.735849" stop-color="#2884B8"/><stop offset="0.754717" stop-color="#2883B7"/><stop offset="0.773585" stop-color="#2881B7"/><stop offset="0.792453" stop-color="#2980B6"/><stop offset="0.811321" stop-color="#297EB6"/><stop offset="0.830189" stop-color="#297CB5"/><stop offset="0.849057" stop-color="#297BB5"/><stop offset="0.867925" stop-color="#2979B4"/><stop offset="0.886792" stop-color="#2977B3"/><stop offset="0.90566" stop-color="#2976B3"/><stop offset="0.924528" stop-color="#2974B2"/><stop offset="0.943396" stop-color="#2972B1"/><stop offset="0.962264" stop-color="#2970B1"/><stop offset="0.981132" stop-color="#296EB0"/><stop offset="1" stop-color="#2A6DB0"/></linearGradient></defs><g clip-path="url(#clip0)" transform="translate(-998 -192)"><path d="M18.4492 32.7207C19.3166 33.5881 19.8531 34.7864 19.8531 36.1098 19.8531 38.7569 17.7072 40.9028 15.0602 40.9028L4.79297 40.9028C2.14593 40.9028 0 38.7569 0 36.1098 0 33.4628 2.14593 31.3169 4.79297 31.3169L15.0602 31.3169C16.3837 31.3169 17.5819 31.8533 18.4492 32.7207ZM35.0557 50.4114C35.9231 51.2788 36.4595 52.4771 36.4596 53.8006 36.4595 56.4477 34.3136 58.5936 31.6666 58.5936L25.0599 58.5936C22.4129 58.5936 20.267 56.4477 20.267 53.8006 20.267 51.1536 22.4129 49.0077 25.0599 49.0077L31.6667 49.0077C32.9901 49.0077 34.1883 49.5441 35.0557 50.4114ZM57.0893 68.5779C57.9567 69.4453 58.4932 70.6435 58.4932 71.967 58.4932 74.6141 56.3473 76.76 53.7003 76.76L35.4891 76.76C32.8421 76.76 30.6962 74.6141 30.6962 71.967 30.6962 69.32 32.8421 67.1741 35.4891 67.1741L53.7003 67.1741C55.0237 67.1741 56.2219 67.7106 57.0893 68.5779ZM31.5949 13.6611C32.4623 14.5285 32.9987 15.7267 32.9987 17.0503 32.9987 19.6973 30.8528 21.8433 28.2058 21.8433L12.8857 21.8433C10.2386 21.8432 8.0927 19.6973 8.0927 17.0503 8.0927 14.4033 10.2386 12.2572 12.8857 12.2573L28.2058 12.2572C29.5293 12.2573 30.7276 12.7938 31.5949 13.6611ZM52.2609 31.7674C53.1283 32.6348 53.6648 33.833 53.6648 35.1565 53.6648 37.8036 51.5188 39.9495 48.8718 39.9495L33.5517 39.9495C30.9047 39.9494 28.7587 37.8036 28.7587 35.1565 28.7587 32.5095 30.9047 30.3635 33.5517 30.3636L48.8718 30.3635C50.1954 30.3636 51.3936 30.9001 52.2609 31.7674ZM94.5816 48.9254C93.7254 48.0692 92.5426 47.5395 91.2359 47.5395 88.6228 47.5395 86.5044 49.658 86.5044 52.2711L86.5044 52.3939C86.5044 55.007 88.6228 57.1255 91.2359 57.1255L91.2358 57.1256C93.8489 57.1256 95.9674 55.0071 95.9674 52.394 95.9674 52.3531 95.9675 52.312 95.9675 52.2711 95.9676 50.9645 95.4379 49.7816 94.5816 48.9254ZM132.497 48.5569C131.629 47.6894 130.431 47.1531 129.108 47.153L115.381 47.153C112.734 47.153 110.588 49.2989 110.588 51.9459 110.588 54.593 112.734 56.739 115.381 56.7389L129.108 56.7389C131.755 56.7389 133.9 54.5931 133.9 51.946 133.9 50.6225 133.364 49.4243 132.497 48.5569ZM119.132 20.7669C118.265 19.8996 117.067 19.3631 115.743 19.3631L102.017 19.3631C99.3697 19.3631 97.2237 21.5091 97.2237 24.1561 97.2237 26.8032 99.3697 28.9491 102.017 28.9491L115.743 28.9491C118.39 28.9491 120.536 26.8032 120.536 24.1561 120.536 22.8325 120 21.6343 119.132 20.7669ZM164.434 66.0197C163.566 65.1523 162.368 64.6159 161.045 64.6159L139.075 64.6159C136.428 64.6159 134.282 66.7618 134.282 69.4088 134.282 72.0559 136.428 74.2018 139.075 74.2018L161.045 74.2018C163.692 74.2018 165.838 72.0559 165.838 69.4088 165.838 68.0854 165.301 66.8871 164.434 66.0197ZM154.709 38.7397C153.841 37.8723 152.643 37.3359 151.32 37.3359L143.163 37.3359C140.516 37.3359 138.37 39.4818 138.37 42.1288 138.37 44.776 140.516 46.9218 143.163 46.9218L151.32 46.9218C153.967 46.9218 156.113 44.7759 156.113 42.1288 156.113 40.8053 155.576 39.6069 154.709 38.7397ZM206.274 113.936 208.387 120.779C219.944 166.122 219.934 213.051 209.337 257.452L207.087 265.219 205.203 268.598C169.451 214.569 168.712 198.248 176.068 174.408 186.45 156.925 195.388 134.069 205.22 113.94ZM174.878 41.7591C180.036 50.1515 184.708 58.706 188.902 67.3897L195.219 82.3434 123.673 83.703 123.032 83.8625 69.7342 86.2422C67.0898 86.3602 64.8502 84.3122 64.7322 81.6678 64.6141 79.0234 66.6622 76.7838 69.3066 76.6658L77.3513 76.3067 77.3834 76.32 115.655 76.32C118.302 76.32 120.448 74.1741 120.448 71.527 120.448 68.88 118.302 66.7341 115.655 66.7341L77.3834 66.734 76.9856 66.8988 63.1171 66.8988C60.47 66.8988 58.3241 64.7529 58.3241 62.1058 58.3241 60.7823 58.8606 59.584 59.7279 58.7167L60.0308 58.5913 50.8718 58.5913C48.2248 58.5913 46.0788 56.4454 46.0788 53.7983 46.0788 51.1513 48.2248 49.0054 50.8718 49.0054L66.7058 49.0054 63.5082 47.6808C62.6409 46.8134 62.1045 45.6152 62.1045 44.2917 62.1044 41.6446 64.2504 39.4988 66.8973 39.4988L81.8591 39.4987 81.03 39.1553 82.0765 39.1553C84.7236 39.1553 86.8695 37.0093 86.8695 34.3623 86.8694 31.7153 84.7236 29.5693 82.0765 29.5693L61.7787 29.5693 60.8403 29.958 58.529 29.0006C57.6616 28.1332 57.1251 26.9351 57.1253 25.6115 57.1253 24.288 57.6616 23.0898 58.529 22.2224L61.8707 20.8382 46.1343 20.8382C43.4872 20.8382 41.3413 18.6923 41.3413 16.0452 41.3413 13.3982 43.4872 11.2523 46.1343 11.2523L94.7766 11.2523 94.8563 10.6746 86.2674 10.6746C83.6203 10.6746 81.4743 8.52871 81.4744 5.88168 81.4743 3.23465 83.6203 1.08871 86.2673 1.08871L106.563 1.08871 143.38 0 158.343 17.6715C164.197 25.3348 169.719 33.3666 174.878 41.7591Z" fill="url(#fill1)" fill-rule="evenodd" transform="matrix(-0.523644 -0.851937 -0.851937 0.523644 1335.21 495.956)"/><path d="M148.234 119.855 63.7069 271.416 65.9571 263.649C76.5538 219.247 76.564 172.319 65.0063 126.975L62.8939 120.133ZM209.551 0 163.483 86.4187 51.8383 88.5402 45.5218 73.5865C41.328 64.9028 36.6559 56.3482 31.4974 47.9558 26.339 39.5634 20.8163 31.5315 14.9624 23.8683L0 6.19675Z" fill="url(#fill2)" fill-rule="evenodd" transform="matrix(-0.523644 -0.851937 -0.851937 0.523644 1265.25 371.075)"/></g></svg>